<svg width="153" height="36" viewBox="0 0 153 36" fill="none" xmlns="http://www.w3.org/2000/svg">
<path d="M1.42444 25.5002L7.61644 8.22024H10.7844L5.09644 25.5002H1.42444ZM14.0964 25.5002L8.43244 8.22024H11.7444L17.9364 25.5002H14.0964ZM4.68844 18.8042H14.3844V21.6842H4.68844V18.8042ZM26.8751 25.5002L23.2511 20.1242L18.0431 13.2602H22.0751L25.3151 18.0842L30.9071 25.5002H26.8751ZM23.5391 17.8922L26.7791 13.2602H30.7151L25.2431 20.4122L23.5391 17.8922ZM24.9311 20.6042L21.4511 25.5002H17.5391L23.2271 18.0842L24.9311 20.6042ZM31.4944 25.5002V8.22024H35.0944V25.5002H31.4944ZM42.2831 25.7402C40.9231 25.7402 39.7391 25.4762 38.7311 24.9482C37.7231 24.4042 36.9391 23.6522 36.3791 22.6922C35.8351 21.7322 35.5631 20.6282 35.5631 19.3802C35.5631 18.1162 35.8351 17.0122 36.3791 16.0682C36.9391 15.1082 37.7151 14.3642 38.7071 13.8362C39.6991 13.2922 40.8511 13.0202 42.1631 13.0202C43.4271 13.0202 44.5231 13.2762 45.4511 13.7882C46.3791 14.3002 47.0991 15.0122 47.6111 15.9242C48.1231 16.8362 48.3791 17.9082 48.3791 19.1402C48.3791 19.3962 48.3711 19.6362 48.3551 19.8602C48.3391 20.0682 48.3151 20.2682 48.2831 20.4602H37.6751V18.0842H45.3791L44.7551 18.5162C44.7551 17.5242 44.5151 16.7962 44.0351 16.3322C43.5711 15.8522 42.9311 15.6122 42.1151 15.6122C41.1711 15.6122 40.4351 15.9322 39.9071 16.5722C39.3951 17.2122 39.1391 18.1722 39.1391 19.4522C39.1391 20.7002 39.3951 21.6282 39.9071 22.2362C40.4351 22.8442 41.2191 23.1482 42.2591 23.1482C42.8351 23.1482 43.3311 23.0522 43.7471 22.8602C44.1631 22.6682 44.4751 22.3562 44.6831 21.9242H48.0671C47.6671 23.1082 46.9791 24.0442 46.0031 24.7322C45.0431 25.4042 43.8031 25.7402 42.2831 25.7402ZM48.6244 25.5002V8.22024H54.3844L59.1844 24.8762H57.0964L61.8964 8.22024H67.6804V25.5002H64.0324V9.25224H64.6564L59.9764 25.5002H56.1604L51.5284 9.39624H52.1284V25.5002H48.6244ZM74.6297 25.7402C73.2697 25.7402 72.0857 25.4762 71.0777 24.9482C70.0697 24.4042 69.2857 23.6522 68.7257 22.6922C68.1817 21.7322 67.9097 20.6282 67.9097 19.3802C67.9097 18.1162 68.1817 17.0122 68.7257 16.0682C69.2857 15.1082 70.0617 14.3642 71.0537 13.8362C72.0457 13.2922 73.1977 13.0202 74.5097 13.0202C75.7737 13.0202 76.8697 13.2762 77.7977 13.7882C78.7257 14.3002 79.4457 15.0122 79.9577 15.9242C80.4697 16.8362 80.7257 17.9082 80.7257 19.1402C80.7257 19.3962 80.7177 19.6362 80.7017 19.8602C80.6857 20.0682 80.6617 20.2682 80.6297 20.4602H70.0217V18.0842H77.7257L77.1017 18.5162C77.1017 17.5242 76.8617 16.7962 76.3817 16.3322C75.9177 15.8522 75.2777 15.6122 74.4617 15.6122C73.5177 15.6122 72.7817 15.9322 72.2537 16.5722C71.7417 17.2122 71.4857 18.1722 71.4857 19.4522C71.4857 20.7002 71.7417 21.6282 72.2537 22.2362C72.7817 22.8442 73.5657 23.1482 74.6057 23.1482C75.1817 23.1482 75.6777 23.0522 76.0937 22.8602C76.5097 22.6682 76.8217 22.3562 77.0297 21.9242H80.4137C80.0137 23.1082 79.3257 24.0442 78.3497 24.7322C77.3897 25.4042 76.1497 25.7402 74.6297 25.7402ZM86.6908 25.7642C85.1228 25.7642 83.9548 25.3882 83.1868 24.6362C82.4348 23.8682 82.0588 22.7082 82.0588 21.1562V10.5242L85.6588 9.18024V21.2762C85.6588 21.8202 85.8108 22.2282 86.1148 22.5002C86.4188 22.7722 86.8908 22.9082 87.5308 22.9082C87.7708 22.9082 87.9948 22.8842 88.2028 22.8362C88.4108 22.7882 88.6188 22.7322 88.8268 22.6682V25.4042C88.6188 25.5162 88.3228 25.6042 87.9388 25.6682C87.5708 25.7322 87.1548 25.7642 86.6908 25.7642ZM79.7788 15.9962V13.2602H88.8268V15.9962H79.7788ZM89.5444 25.5002V13.2602H93.0724V16.1402H93.1444V25.5002H89.5444ZM93.1444 19.1162L92.8324 16.2122C93.1204 15.1722 93.5924 14.3802 94.2484 13.8362C94.9044 13.2922 95.7204 13.0202 96.6964 13.0202C97.0004 13.0202 97.2244 13.0522 97.3684 13.1162V16.4762C97.2884 16.4442 97.1764 16.4282 97.0324 16.4282C96.8884 16.4122 96.7124 16.4042 96.5044 16.4042C95.3524 16.4042 94.5044 16.6122 93.9604 17.0282C93.4164 17.4282 93.1444 18.1242 93.1444 19.1162ZM97.4794 25.5002V13.2602H101.079V25.5002H97.4794ZM97.3594 11.6282V7.74024H101.199V11.6282H97.3594ZM108.005 25.7402C106.725 25.7402 105.597 25.4682 104.621 24.9242C103.645 24.3802 102.877 23.6282 102.317 22.6682C101.773 21.7082 101.501 20.6122 101.501 19.3802C101.501 18.1482 101.773 17.0522 102.317 16.0922C102.877 15.1322 103.645 14.3802 104.621 13.8362C105.597 13.2922 106.725 13.0202 108.005 13.0202C109.077 13.0202 110.037 13.2202 110.885 13.6202C111.749 14.0042 112.453 14.5402 112.997 15.2282C113.557 15.9162 113.917 16.7242 114.077 17.6522H110.597C110.421 17.0602 110.101 16.6122 109.637 16.3082C109.189 16.0042 108.661 15.8522 108.053 15.8522C107.477 15.8522 106.973 15.9962 106.541 16.2842C106.125 16.5722 105.805 16.9802 105.581 17.5082C105.357 18.0362 105.245 18.6602 105.245 19.3802C105.245 20.1002 105.357 20.7242 105.581 21.2522C105.805 21.7802 106.125 22.1882 106.541 22.4762C106.973 22.7642 107.477 22.9082 108.053 22.9082C108.661 22.9082 109.189 22.7562 109.637 22.4522C110.101 22.1482 110.421 21.7002 110.597 21.1082H114.077C113.917 22.0362 113.557 22.8442 112.997 23.5322C112.453 24.2202 111.749 24.7642 110.885 25.1642C110.037 25.5482 109.077 25.7402 108.005 25.7402ZM119.442 25.7402C117.65 25.7402 116.226 25.3802 115.17 24.6602C114.114 23.9402 113.538 22.9482 113.442 21.6842H116.658C116.738 22.2282 117.01 22.6442 117.474 22.9322C117.954 23.2042 118.61 23.3402 119.442 23.3402C120.194 23.3402 120.738 23.2362 121.074 23.0282C121.426 22.8042 121.602 22.4922 121.602 22.0922C121.602 21.7882 121.498 21.5562 121.29 21.3962C121.098 21.2202 120.738 21.0762 120.21 20.9642L118.242 20.5562C116.786 20.2522 115.714 19.7962 115.026 19.1882C114.338 18.5642 113.994 17.7642 113.994 16.7882C113.994 15.6042 114.45 14.6842 115.362 14.0282C116.274 13.3562 117.546 13.0202 119.178 13.0202C120.794 13.0202 122.082 13.3482 123.042 14.0042C124.002 14.6442 124.53 15.5402 124.626 16.6922H121.41C121.346 16.2762 121.122 15.9642 120.738 15.7562C120.354 15.5322 119.81 15.4202 119.106 15.4202C118.466 15.4202 117.986 15.5162 117.666 15.7082C117.362 15.8842 117.21 16.1402 117.21 16.4762C117.21 16.7642 117.338 16.9962 117.594 17.1722C117.85 17.3322 118.274 17.4762 118.866 17.6042L121.074 18.0602C122.306 18.3162 123.234 18.7962 123.858 19.5002C124.498 20.1882 124.818 21.0042 124.818 21.9482C124.818 23.1482 124.346 24.0842 123.402 24.7562C122.474 25.4122 121.154 25.7402 119.442 25.7402Z" fill="black"/>
<path d="M127 1.50024H138.5" stroke="black" stroke-width="3" stroke-linecap="round" stroke-dasharray="7 7"/>
<path d="M139 1.50024L150.79 18.203C150.915 18.3802 150.912 18.6178 150.782 18.7913L139.15 34.3002C139.056 34.4261 138.907 34.5002 138.75 34.5002H128.475C128.068 34.5002 127.831 34.0392 128.069 33.7084L138.796 18.7834C138.919 18.6133 138.922 18.385 138.805 18.2114L127.5 1.50024" stroke="black" stroke-width="3" stroke-linecap="round" stroke-dasharray="7 7"/>
</svg>
